<?xml version="1.0" encoding="utf-8"?>
<!-- Generator: Adobe Illustrator 25.0.1, SVG Export Plug-In . SVG Version: 6.00 Build 0)  -->
<svg version="1.1" id="Calque_1" xmlns="http://www.w3.org/2000/svg" xmlns:xlink="http://www.w3.org/1999/xlink" x="0px" y="0px"
	 viewBox="0 0 125.1 45.2" style="enable-background:new 0 0 125.1 45.2;" xml:space="preserve">
<style type="text/css">
	.st0{fill:#FFFFFF;}
	.st1{fill:#FFB54A;}
</style>
<path class="st0" d="M22.6,16.1h-9.1v4.8h8.2v6.4h-8.2v11.3H6V9.8h16.6L22.6,16.1L22.6,16.1z"/>
<path class="st0" d="M38.5,10.7c4.9-2.5,10.7-2.5,15.6,0c2.4,1.2,4.4,3,5.9,5.3c1.5,2.3,2.3,5,2.3,7.7c0.2,4.3-1.5,8.4-4.5,11.5
	c-6.5,6-16.5,6-23,0c-3-3-4.7-7.2-4.5-11.5c0-2.7,0.8-5.4,2.3-7.7C34,13.7,36.1,11.9,38.5,10.7z M52,18.4c-3.2-3.1-8.3-3.1-11.5,0
	c-1.5,1.4-2.4,3.3-2.4,5.3c-0.1,2.3,0.8,4.5,2.4,6.1c3.1,3.2,8.1,3.3,11.3,0.2c0.1-0.1,0.2-0.2,0.2-0.2c1.6-1.7,2.4-3.9,2.4-6.1
	C54.4,21.7,53.6,19.7,52,18.4z"/>
<path class="st0" d="M72.5,10.7c4.9-2.5,10.7-2.5,15.6,0c2.4,1.2,4.4,3,5.9,5.3c1.5,2.3,2.3,5,2.3,7.7c0.2,4.3-1.5,8.4-4.5,11.5
	c-6.5,5.9-16.5,5.9-23,0c-3-3-4.7-7.2-4.5-11.5c0-2.7,0.8-5.4,2.3-7.7C68,13.7,70.1,11.9,72.5,10.7z M86,18.4
	c-3.2-3.1-8.3-3.1-11.5,0c-1.5,1.4-2.4,3.3-2.4,5.3c-0.1,2.3,0.8,4.5,2.4,6.1c3.1,3.2,8.1,3.3,11.3,0.2c0.1-0.1,0.2-0.2,0.2-0.2
	c1.6-1.6,2.4-3.9,2.4-6.1C88.4,21.7,87.6,19.7,86,18.4z"/>
<path class="st0" d="M99.7,38.7V9.8h10.6c3.9-0.1,7.6,1.5,10.4,4.2c5.7,5.5,5.8,14.6,0.2,20.3c-0.1,0.1-0.1,0.1-0.2,0.2
	c-2.7,2.7-6.5,4.3-10.4,4.2L99.7,38.7L99.7,38.7z M107.2,16.1v16.2h1.7c2.2,0.1,4.3-0.6,6-2c1.6-1.4,2.4-3.4,2.4-6.1
	c0.1-2.2-0.7-4.4-2.3-5.9c-1.6-1.5-3.8-2.2-6-2.1L107.2,16.1z"/>
<path class="st1" d="M27.2,45.2H0V0h27.2L27.2,45.2z M1.4,43.8h24.4V1.4H1.4V43.8z"/>
</svg>
